<?xml version="1.0" encoding="UTF-8" standalone="no"?>
<!DOCTYPE svg PUBLIC "-//W3C//DTD SVG 1.1//EN" "http://www.w3.org/Graphics/SVG/1.1/DTD/svg11.dtd">
<svg onclick="parent.svgclick(evt)" xmlns="http://www.w3.org/2000/svg" xmlns:xlink="http://www.w3.org/1999/xlink" viewBox="-39.4633439284517 -62.2105648200959 78.9266878569615 124.42112963926" enable-background="new" shape-rendering="auto">
<script>
var locCode = new Array('00079P0GAG02','00079P0GVD02','00079P0GVD01','00079P0GAG15','00079P0GCG11','00079P0GCG13','00079P0GCG10','00079P0GCG12','00079P0GAG18','00079P0GCG02A','00079P0GVD03','00079P0GVD04','00079P0GBG21','00079P0GBG20','00079P0GAG16','00079P0GCG21','00079P0GBG15','00079P0GCG23','00079P0GCG22','00079P0GCG20','00079P0GCG01','00079P0GBG02A','00079P0GBG01A','00079P0GCG01A','00079P0GPS01','00079P0GPS02','00079P0GCG07','00079P0GCG08','00079P0GCG09','00079P0GCG06','00079P0GCG05','00079P0GCG04','00079P0GCG03','00079P0GBG11','00079P0GBG09','00079P0GBG10','00079P0GBG14','00079P0GAG09','00079P0GBG04','00079P0GBG05','00079P0GBG03','00079P0GBG06','00079P0GBG12','00079P0GBG13','00079P0GBG08','00079P0GBG07','00079P0GAG11','00079P0GAG14','00079P0GAG13','00079P0GAG12','00079P0GAG08','00079P0GAG07','00079P0GAG06','00079P0GAG05','00079P0GAG04','00079P0GAG03','00079P0GCG02','00079P0GBG02','00079P0GBG01','00079P0GAG01');
var locLink = new Array('','','','','','','','','','','','','','','','','','','','','','','','','','','','','','','','','','','','','','','','','','','','','','','','','','','','','','','','','','','','');
var locTiny = new Array('AG02','VD02','VD01','AG15','CG11','CG13','CG10','CG12','AG18','CG02A','VD03','VD04','BG21','BG20','AG16','CG21','BG15','CG23','CG22','CG20','CG01','BG02A','BG01A','CG01A','PS01','PS02','CG07','CG08','CG09','CG06','CG05','CG04','CG03','BG11','BG09','BG10','BG14','AG09','BG04','BG05','BG03','BG06','BG12','BG13','BG08','BG07','AG11','AG14','AG13','AG12','AG08','AG07','AG06','AG05','AG04','AG03','CG02','BG02','BG01','AG01');
var locLong = new Array('CL 79P.AG02','CL 79P.VD02','CL 79P.VD01','CL 79P.AG15','CL 79P.CG11','CL 79P.CG13','CL 79P.CG10','CL 79P.CG12','CL 79P.AG18','CL 79P.CG02A','CL 79P.VD03','CL 79P.VD04','CL 79P.BG21','CL 79P.BG20','CL 79P.AG16','CL 79P.CG21','CL 79P.BG15','CL 79P.CG23','CL 79P.CG22','CL 79P.CG20','CL 79P.CG01','CL 79P.BG02A','CL 79P.BG01A','CL 79P.CG01A','CL 79P.PS01','CL 79P.PS02','CL 79P.CG07','CL 79P.CG08','CL 79P.CG09','CL 79P.CG06','CL 79P.CG05','CL 79P.CG04','CL 79P.CG03','CL 79P.BG11','CL 79P.BG09','CL 79P.BG10','CL 79P.BG14','CL 79P.AG09','CL 79P.BG04','CL 79P.BG05','CL 79P.BG03','CL 79P.BG06','CL 79P.BG12','CL 79P.BG13','CL 79P.BG08','CL 79P.BG07','CL 79P.AG11','CL 79P.AG14','CL 79P.AG13','CL 79P.AG12','CL 79P.AG08','CL 79P.AG07','CL 79P.AG06','CL 79P.AG05','CL 79P.AG04','CL 79P.AG03','CL 79P.CG02','CL 79P.BG02','CL 79P.BG01','CL 79P.AG01');
</script>
<style type="text/css"><![CDATA[.C1{fill:#666666;fill-opacity:0.8}]]></style>
<g>
<title>Space</title>
<g id="L1">
<path onclick="parent.gclick(evt)" onmouseover="parent.gover(evt)" onmouseout="parent.gout(evt)" class="C1" d="M21.2469 -11.3612L23.6237 -28.7596L17.8622 -29.5467L15.4854 -12.1483L21.2469 -11.3612z"/>
</g>
<g id="L2">
<path onclick="parent.gclick(evt)" onmouseover="parent.gover(evt)" onmouseout="parent.gout(evt)" class="C1" d="M13.7884 -27.2983L17.3473 -26.8121L15.3521 -12.2069L11.7931 -12.6931L13.7884 -27.2983z"/>
</g>
<g id="L3">
<path onclick="parent.gclick(evt)" onmouseover="parent.gover(evt)" onmouseout="parent.gout(evt)" class="C1" d="M-6.2939 -31.0703L-2.3307 -30.5289L-4.4639 -14.9140L-8.4271 -15.4554L-6.2939 -31.0703z"/>
</g>
<g id="L4">
<path onclick="parent.gclick(evt)" onmouseover="parent.gover(evt)" onmouseout="parent.gout(evt)" class="C1" d="M20.9575 13.7709L14.8740 12.9398L14.5329 15.4366L11.7686 15.0590L11.4532 17.3675L20.3010 18.5762L20.9575 13.7709z"/>
</g>
<g id="L5">
<path onclick="parent.gclick(evt)" onmouseover="parent.gover(evt)" onmouseout="parent.gout(evt)" class="C1" d="M-17.0761 3.6573L-18.3921 13.2904L-12.6033 14.0812L-11.2874 4.4481L-17.0761 3.6573z"/>
</g>
<g id="L6">
<path onclick="parent.gclick(evt)" onmouseover="parent.gover(evt)" onmouseout="parent.gout(evt)" class="C1" d="M-17.1801 3.6431L-22.8995 2.8618L-24.2155 12.4948L-18.4961 13.2762L-17.1801 3.6431z"/>
</g>
<g id="L7">
<path onclick="parent.gclick(evt)" onmouseover="parent.gover(evt)" onmouseout="parent.gout(evt)" class="C1" d="M-9.9558 -5.2988L-15.7149 -6.0856L-15.7196 -6.0509L-15.7493 -6.0550L-17.0619 3.5533L-11.2732 4.3441L-9.9558 -5.2988z"/>
</g>
<g id="L8">
<path onclick="parent.gclick(evt)" onmouseover="parent.gover(evt)" onmouseout="parent.gout(evt)" class="C1" d="M-15.8486 -6.1038L-21.5680 -6.8852L-22.8853 2.7578L-17.1659 3.5391L-15.8486 -6.1038z"/>
</g>
<g id="L9">
<path onclick="parent.gclick(evt)" onmouseover="parent.gover(evt)" onmouseout="parent.gout(evt)" class="C1" d="M21.5254 30.9281L9.9827 29.3513L8.6667 38.9843L20.2095 40.5612L21.5254 30.9281z"/>
</g>
<g id="La">
<path onclick="parent.gclick(evt)" onmouseover="parent.gover(evt)" onmouseout="parent.gout(evt)" class="C1" d="M-13.1840 -25.2948L-12.0450 -33.6324L-17.8065 -34.4194L-18.9455 -26.0819L-13.1840 -25.2948z"/>
</g>
<g id="Lb">
<path onclick="parent.gclick(evt)" onmouseover="parent.gover(evt)" onmouseout="parent.gout(evt)" class="C1" d="M13.9714 -2.1008L8.0267 -2.9129L5.3501 16.6755L11.2948 17.4876L13.9714 -2.1008z"/>
</g>
<g id="Lc">
<path onclick="parent.gclick(evt)" onmouseover="parent.gover(evt)" onmouseout="parent.gout(evt)" class="C1" d="M11.1630 19.4178L5.2182 18.6057L2.5416 38.1941L8.4863 39.0062L11.1630 19.4178z"/>
</g>
<g id="Ld">
<path onclick="parent.gclick(evt)" onmouseover="parent.gover(evt)" onmouseout="parent.gout(evt)" class="C1" d="M6.3674 -34.7630L12.1289 -33.9759L11.6589 -30.5355L5.8974 -31.3225L6.3674 -34.7630z"/>
</g>
<g id="Le">
<path onclick="parent.gclick(evt)" onmouseover="parent.gover(evt)" onmouseout="parent.gout(evt)" class="C1" d="M0.5168 -35.5623L6.2781 -34.7752L5.8081 -31.3347L0.0468 -32.1218L0.5168 -35.5623z"/>
</g>
<g id="Lf">
<path onclick="parent.gclick(evt)" onmouseover="parent.gover(evt)" onmouseout="parent.gout(evt)" class="C1" d="M11.3128 19.6142L22.8556 21.1911L21.5397 30.8241L9.9969 29.2472L11.3128 19.6142z"/>
</g>
<g id="L10">
<path onclick="parent.gclick(evt)" onmouseover="parent.gover(evt)" onmouseout="parent.gout(evt)" class="C1" d="M-12.8131 16.3184L-18.5325 15.5370L-19.8484 25.1701L-14.1291 25.9514L-12.8131 16.3184z"/>
</g>
<g id="L11">
<path onclick="parent.gclick(evt)" onmouseover="parent.gover(evt)" onmouseout="parent.gout(evt)" class="C1" d="M-6.5215 17.1779L5.0213 18.7547L2.3751 38.1248L-9.1677 36.5479L-6.5215 17.1779z"/>
</g>
<g id="L12">
<path onclick="parent.gclick(evt)" onmouseover="parent.gover(evt)" onmouseout="parent.gout(evt)" class="C1" d="M-19.8626 25.2741L-14.1433 26.0554L-15.4592 35.6885L-21.1786 34.9071L-19.8626 25.2741z"/>
</g>
<g id="L13">
<path onclick="parent.gclick(evt)" onmouseover="parent.gover(evt)" onmouseout="parent.gout(evt)" class="C1" d="M-25.6861 24.4786L-19.9667 25.2599L-21.2826 34.8929L-27.0020 34.1116L-25.6861 24.4786z"/>
</g>
<g id="L14">
<path onclick="parent.gclick(evt)" onmouseover="parent.gover(evt)" onmouseout="parent.gout(evt)" class="C1" d="M-24.3559 14.7415L-18.6365 15.5228L-19.9525 25.1559L-25.6718 24.3745L-24.3559 14.7415z"/>
</g>
<g id="L15">
<path onclick="parent.gclick(evt)" onmouseover="parent.gover(evt)" onmouseout="parent.gout(evt)" class="C1" d="M-7.3469 -24.3965L-8.5712 -15.4347L-14.3327 -16.2218L-13.1084 -25.1835L-7.3469 -24.3965z"/>
</g>
<g id="L16">
<path onclick="parent.gclick(evt)" onmouseover="parent.gover(evt)" onmouseout="parent.gout(evt)" class="C1" d="M5.7893 -31.1960L4.6503 -22.8584L-1.1112 -23.6455L0.0278 -31.9831L5.7893 -31.1960z"/>
</g>
<g id="L17">
<path onclick="parent.gclick(evt)" onmouseover="parent.gover(evt)" onmouseout="parent.gout(evt)" class="C1" d="M5.8785 -31.1838L4.7395 -22.8463L10.5010 -22.0592L11.6400 -30.3967L5.8785 -31.1838z"/>
</g>
<g id="L18">
<path onclick="parent.gclick(evt)" onmouseover="parent.gover(evt)" onmouseout="parent.gout(evt)" class="C1" d="M-11.9559 -33.6202L-13.0949 -25.2826L-7.3334 -24.4955L-6.1944 -32.8331L-11.9559 -33.6202z"/>
</g>
<g id="L19">
<path onclick="parent.gclick(evt)" onmouseover="parent.gover(evt)" onmouseout="parent.gout(evt)" class="C1" d="M27.0850 -10.4628L-20.1979 -16.9221L-20.4686 -14.9405L-17.1187 -14.4829L-17.6493 -10.5989L-16.6585 -10.4636L-16.1279 -14.3475L26.8143 -8.4812L27.0850 -10.4628z"/>
</g>
<g id="L1a">
<path onclick="parent.gclick(evt)" onmouseover="parent.gover(evt)" onmouseout="parent.gout(evt)" class="C1" d="M30.7803 -22.0795L28.9969 -22.3231L27.3713 -10.4237L27.2227 -10.4440L27.2038 -10.3052L27.1641 -10.3107L26.9313 -8.6065L26.9709 -8.6011L26.1318 -2.4581L-9.5370 -7.3308L-16.9481 -8.3433L-16.6842 -10.2753L-17.6750 -10.4107L-17.9389 -8.4786L-21.4265 -8.9551L-20.3545 -16.8022L-20.5107 -16.8235L-20.4904 -16.9721L-20.4828 -16.9711L-18.8586 -28.8607L-20.6420 -29.1043L-23.7254 -6.5339L-21.7933 -6.2700L-21.6878 -7.0428L-21.6382 -7.0361L-21.6302 -7.0945L-21.5420 -7.0825L-21.5500 -7.0240L-13.5191 -5.9269L-9.7982 -5.4186L-3.8534 -4.6065L25.8705 -0.5459L25.7650 0.2269L27.6970 0.4909L30.7803 -22.0795z"/>
</g>
<g id="L1b">
<path onclick="parent.gclick(evt)" onmouseover="parent.gover(evt)" onmouseout="parent.gout(evt)" class="C1" d="M-9.6567 -7.4885L-9.3143 -9.9952L-13.2378 -10.5312L-13.5803 -8.0245L-9.6567 -7.4885z"/>
</g>
<g id="L1c">
<path onclick="parent.gclick(evt)" onmouseover="parent.gover(evt)" onmouseout="parent.gout(evt)" class="C1" d="M-13.6694 -8.0367L-13.4245 -9.8300L-16.5950 -10.2631L-16.8400 -8.4698L-13.6694 -8.0367z"/>
</g>
<g id="L1d">
<path onclick="parent.gclick(evt)" onmouseover="parent.gover(evt)" onmouseout="parent.gout(evt)" class="C1" d="M-18.0091 -8.6295L-17.7641 -10.4229L-20.9347 -10.8560L-21.1797 -9.0626L-18.0091 -8.6295z"/>
</g>
<g id="L1e">
<path onclick="parent.gclick(evt)" onmouseover="parent.gover(evt)" onmouseout="parent.gout(evt)" class="C1" d="M-17.2214 -14.3960L-20.3919 -14.8291L-20.9090 -11.0442L-17.7384 -10.6111L-17.2214 -14.3960z"/>
</g>
<g id="L1f">
<path onclick="parent.gclick(evt)" onmouseover="parent.gover(evt)" onmouseout="parent.gout(evt)" class="C1" d="M-13.3987 -10.0183L-12.8817 -13.8031L-16.0522 -14.2362L-16.5693 -10.4514L-13.3987 -10.0183z"/>
</g>
<g id="L20">
<path onclick="parent.gclick(evt)" onmouseover="parent.gover(evt)" onmouseout="parent.gout(evt)" class="C1" d="M-11.1945 -10.3429L-10.7614 -13.5135L-12.7925 -13.7909L-13.2256 -10.6204L-11.1945 -10.3429z"/>
</g>
<g id="L21">
<path onclick="parent.gclick(evt)" onmouseover="parent.gover(evt)" onmouseout="parent.gout(evt)" class="C1" d="M-9.3021 -10.0844L-8.8690 -13.2549L-10.6722 -13.5013L-11.1053 -10.3307L-11.1053 -10.3307L-9.3021 -10.0844z"/>
</g>
<g id="L22">
<path onclick="parent.gclick(evt)" onmouseover="parent.gover(evt)" onmouseout="parent.gout(evt)" class="C1" d="M2.9549 12.4924L4.0770 4.2787L-0.8077 3.6114L-2.4279 15.4712L2.4568 16.1385L2.9549 12.4924z"/>
</g>
<g id="L23">
<path onclick="parent.gclick(evt)" onmouseover="parent.gover(evt)" onmouseout="parent.gout(evt)" class="C1" d="M5.7291 12.8714L3.0440 12.5046L2.9549 12.4924L2.4568 16.1385L5.2310 16.5175L5.7291 12.8714z"/>
</g>
<g id="L24">
<path onclick="parent.gclick(evt)" onmouseover="parent.gover(evt)" onmouseout="parent.gout(evt)" class="C1" d="M5.1043 -3.2415L0.2196 -3.9088L-0.8077 3.6114L4.0771 4.2787L5.1043 -3.2415z"/>
</g>
<g id="L25">
<path onclick="parent.gclick(evt)" onmouseover="parent.gover(evt)" onmouseout="parent.gout(evt)" class="C1" d="M-1.7714 10.6659L-5.7247 10.1258L-6.3811 14.9312L-2.4279 15.4712L-1.7714 10.6659z"/>
</g>
<g id="L26">
<path onclick="parent.gclick(evt)" onmouseover="parent.gover(evt)" onmouseout="parent.gout(evt)" class="C1" d="M22.9485 -0.8038L16.8650 -1.6348L14.8862 12.8506L20.9697 13.6817L22.9485 -0.8038z"/>
</g>
<g id="L27">
<path onclick="parent.gclick(evt)" onmouseover="parent.gover(evt)" onmouseout="parent.gout(evt)" class="C1" d="M3.8925 -11.5116L-2.6477 -12.4051L-3.4355 -6.6386L-0.0658 -6.1783L0.4201 -9.7352L3.5907 -9.3021L3.8925 -11.5116z"/>
</g>
<g id="L28">
<path onclick="parent.gclick(evt)" onmouseover="parent.gover(evt)" onmouseout="parent.gout(evt)" class="C1" d="M3.1048 -5.7452L3.5785 -9.2129L0.4971 -9.6339L0.0234 -6.1661L3.1048 -5.7452z"/>
</g>
<g id="L29">
<path onclick="parent.gclick(evt)" onmouseover="parent.gover(evt)" onmouseout="parent.gout(evt)" class="C1" d="M8.1776 -5.0521L8.9654 -10.8186L4.0312 -11.4926L3.9817 -11.4994L3.1939 -5.7330L8.1776 -5.0521z"/>
</g>
<g id="L2a">
<path onclick="parent.gclick(evt)" onmouseover="parent.gover(evt)" onmouseout="parent.gout(evt)" class="C1" d="M6.9030 4.2812L7.8785 -2.8625L5.1935 -3.2293L4.2177 3.9144L6.9030 4.2812z"/>
</g>
<g id="L2b">
<path onclick="parent.gclick(evt)" onmouseover="parent.gover(evt)" onmouseout="parent.gout(evt)" class="C1" d="M0.1305 -3.9209L-3.7336 -4.4488L-5.0439 5.1421L-1.1797 5.6700L0.1305 -3.9209z"/>
</g>
<g id="L2c">
<path onclick="parent.gclick(evt)" onmouseover="parent.gover(evt)" onmouseout="parent.gout(evt)" class="C1" d="M-1.8484 10.5645L-1.1919 5.7592L-5.0560 5.2313L-5.7125 10.0366L-1.8484 10.5645z"/>
</g>
<g id="L2d">
<path onclick="parent.gclick(evt)" onmouseover="parent.gover(evt)" onmouseout="parent.gout(evt)" class="C1" d="M5.7413 12.7822L6.3571 8.2741L3.6722 7.9073L3.0562 12.4154L5.7413 12.7822z"/>
</g>
<g id="L2e">
<path onclick="parent.gclick(evt)" onmouseover="parent.gover(evt)" onmouseout="parent.gout(evt)" class="C1" d="M6.3693 8.1849L6.8904 4.3703L4.2055 4.0035L3.6844 7.8181L6.3693 8.1849z"/>
</g>
<g id="L2f">
<path onclick="parent.gclick(evt)" onmouseover="parent.gover(evt)" onmouseout="parent.gout(evt)" class="C1" d="M16.1343 3.0494L16.7759 -1.6470L14.1007 -2.0125L13.4591 2.6839L16.1343 3.0494z"/>
</g>
<g id="L30">
<path onclick="parent.gclick(evt)" onmouseover="parent.gover(evt)" onmouseout="parent.gout(evt)" class="C1" d="M14.5451 15.3474L14.8740 12.9398L12.1097 12.5622L11.7808 14.9698L14.5451 15.3474z"/>
</g>
<g id="L31">
<path onclick="parent.gclick(evt)" onmouseover="parent.gover(evt)" onmouseout="parent.gout(evt)" class="C1" d="M14.7970 12.8384L15.4535 8.0331L12.7783 7.6676L12.1219 12.4730L14.7970 12.8384z"/>
</g>
<g id="L32">
<path onclick="parent.gclick(evt)" onmouseover="parent.gover(evt)" onmouseout="parent.gout(evt)" class="C1" d="M15.4657 7.9439L16.1221 3.1385L13.4470 2.7731L12.7905 7.5785L15.4657 7.9439z"/>
</g>
<g id="L33">
<path onclick="parent.gclick(evt)" onmouseover="parent.gover(evt)" onmouseout="parent.gout(evt)" class="C1" d="M23.0654 18.9539L23.7218 14.1485L21.0467 13.7830L20.3902 18.5884L23.0654 18.9539z"/>
</g>
<g id="L34">
<path onclick="parent.gclick(evt)" onmouseover="parent.gover(evt)" onmouseout="parent.gout(evt)" class="C1" d="M23.7340 14.0593L24.3905 9.2540L21.7153 8.8885L21.0589 13.6939L23.7340 14.0593z"/>
</g>
<g id="L35">
<path onclick="parent.gclick(evt)" onmouseover="parent.gover(evt)" onmouseout="parent.gout(evt)" class="C1" d="M24.4026 9.1648L25.0591 4.3594L22.3840 3.9940L21.7275 8.7993L24.4026 9.1648z"/>
</g>
<g id="L36">
<path onclick="parent.gclick(evt)" onmouseover="parent.gover(evt)" onmouseout="parent.gout(evt)" class="C1" d="M25.0713 4.2703L25.7129 -0.4261L23.0377 -0.7916L22.3961 3.9048L25.0713 4.2703z"/>
</g>
<g id="L37">
<path onclick="parent.gclick(evt)" onmouseover="parent.gover(evt)" onmouseout="parent.gout(evt)" class="C1" d="M18.1956 -3.6836L18.9833 -9.4500L15.1876 -9.9686L14.3998 -4.2021L18.1956 -3.6836z"/>
</g>
<g id="L38">
<path onclick="parent.gclick(evt)" onmouseover="parent.gover(evt)" onmouseout="parent.gout(evt)" class="C1" d="M26.0120 -2.6158L26.7997 -8.3822L19.0725 -9.4379L18.2848 -3.6714L26.0120 -2.6158z"/>
</g>
<g id="L39">
<path onclick="parent.gclick(evt)" onmouseover="parent.gover(evt)" onmouseout="parent.gout(evt)" class="C1" d="M-14.4218 -16.2340L-13.1976 -25.1957L-18.9591 -25.9828L-20.1833 -17.0210L-14.4218 -16.2340z"/>
</g>
<g id="L3a">
<path onclick="parent.gclick(evt)" onmouseover="parent.gover(evt)" onmouseout="parent.gout(evt)" class="C1" d="M3.4125 -13.7976L4.6368 -22.7594L-1.1247 -23.5464L-2.3490 -14.5847L3.4125 -13.7976z"/>
</g>
<g id="L3b">
<path onclick="parent.gclick(evt)" onmouseover="parent.gover(evt)" onmouseout="parent.gout(evt)" class="C1" d="M9.2632 -12.9983L10.4874 -21.9601L4.7260 -22.7472L3.5017 -13.7854L9.2632 -12.9983z"/>
</g>
<g id="L3c">
<path onclick="parent.gclick(evt)" onmouseover="parent.gover(evt)" onmouseout="parent.gout(evt)" class="C1" d="M27.0975 -10.5620L29.4743 -27.9604L23.7128 -28.7475L21.3360 -11.3491L27.0975 -10.5620z"/>
</g>
</g>
<style type="text/css"><![CDATA[.T1{fill:#006600;font-family:sans-serif;font-size:2pt;text-anchor:middle;dominant-baseline:central}]]></style>
<text onclick="parent.tclick(evt)" onmouseover="parent.tover(evt)" onmouseout="parent.tout(evt)" id="00079P0GAG02" class="T1" x="19.554521302518" y="-20.4539867304265"></text>
<text onclick="parent.tclick(evt)" onmouseover="parent.tover(evt)" onmouseout="parent.tout(evt)" id="00079P0GVD02" class="T1" x="14.5702218505321" y="-19.7525794804096"></text>
<text onclick="parent.tclick(evt)" onmouseover="parent.tover(evt)" onmouseout="parent.tout(evt)" id="00079P0GVD01" class="T1" x="-5.37888145947363" y="-22.9921520007774"></text>
<text onclick="parent.tclick(evt)" onmouseover="parent.tover(evt)" onmouseout="parent.tout(evt)" id="00079P0GAG15" class="T1" x="16.7642736055423" y="15.873420169577"></text>
<text onclick="parent.tclick(evt)" onmouseover="parent.tover(evt)" onmouseout="parent.tout(evt)" id="00079P0GCG11" class="T1" x="-14.8397277794429" y="8.86925120931119"></text>
<text onclick="parent.tclick(evt)" onmouseover="parent.tover(evt)" onmouseout="parent.tout(evt)" id="00079P0GCG13" class="T1" x="-20.6978177434648" y="8.06897734943777"></text>
<text onclick="parent.tclick(evt)" onmouseover="parent.tover(evt)" onmouseout="parent.tout(evt)" id="00079P0GCG10" class="T1" x="-13.5088295994792" y="-0.872668800875545"></text>
<text onclick="parent.tclick(evt)" onmouseover="parent.tover(evt)" onmouseout="parent.tout(evt)" id="00079P0GCG12" class="T1" x="-19.366960614454" y="-1.67303864005953"></text>
<text onclick="parent.tclick(evt)" onmouseover="parent.tover(evt)" onmouseout="parent.tout(evt)" id="00079P0GAG18" class="T1" x="15.0960624125437" y="34.9562128391117"></text>
<text onclick="parent.tclick(evt)" onmouseover="parent.tover(evt)" onmouseout="parent.tout(evt)" id="00079P0GCG02A" class="T1" x="-15.4952861174825" y="-29.8571115303785"></text>
<text onclick="parent.tclick(evt)" onmouseover="parent.tover(evt)" onmouseout="parent.tout(evt)" id="00079P0GVD03" class="T1" x="9.66076116351178" y="7.28734804969281"></text>
<text onclick="parent.tclick(evt)" onmouseover="parent.tover(evt)" onmouseout="parent.tout(evt)" id="00079P0GVD04" class="T1" x="6.8522934015491" y="28.8059334997088"></text>
<text onclick="parent.tclick(evt)" onmouseover="parent.tover(evt)" onmouseout="parent.tout(evt)" id="00079P0GBG21" class="T1" x="9.01317513652612" y="-32.6492286501452"></text>
<text onclick="parent.tclick(evt)" onmouseover="parent.tover(evt)" onmouseout="parent.tout(evt)" id="00079P0GBG20" class="T1" x="3.16242770553799" y="-33.4484994504601"></text>
<text onclick="parent.tclick(evt)" onmouseover="parent.tover(evt)" onmouseout="parent.tout(evt)" id="00079P0GAG16" class="T1" x="16.4262427795329" y="25.2191508393735"></text>
<text onclick="parent.tclick(evt)" onmouseover="parent.tover(evt)" onmouseout="parent.tout(evt)" id="00079P0GCG21" class="T1" x="-16.3307596254745" y="20.7442156495526"></text>
<text onclick="parent.tclick(evt)" onmouseover="parent.tover(evt)" onmouseout="parent.tout(evt)" id="00079P0GBG15" class="T1" x="-2.07320161844837" y="27.6513301199302"></text>
<text onclick="parent.tclick(evt)" onmouseover="parent.tover(evt)" onmouseout="parent.tout(evt)" id="00079P0GCG23" class="T1" x="-17.6609399914742" y="30.4812776492909"></text>
<text onclick="parent.tclick(evt)" onmouseover="parent.tover(evt)" onmouseout="parent.tout(evt)" id="00079P0GCG22" class="T1" x="-23.4843520414433" y="29.6857411395758"></text>
<text onclick="parent.tclick(evt)" onmouseover="parent.tover(evt)" onmouseout="parent.tout(evt)" id="00079P0GCG20" class="T1" x="-22.1541716754436" y="19.9486791398376"></text>
<text onclick="parent.tclick(evt)" onmouseover="parent.tover(evt)" onmouseout="parent.tout(evt)" id="00079P0GCG01" class="T1" x="-10.8397930074716" y="-20.3091112701222"></text>
<text onclick="parent.tclick(evt)" onmouseover="parent.tover(evt)" onmouseout="parent.tout(evt)" id="00079P0GBG02A" class="T1" x="2.33906809950713" y="-27.4207598101348"></text>
<text onclick="parent.tclick(evt)" onmouseover="parent.tover(evt)" onmouseout="parent.tout(evt)" id="00079P0GBG01A" class="T1" x="8.18972707755165" y="-26.6215011002496"></text>
<text onclick="parent.tclick(evt)" onmouseover="parent.tover(evt)" onmouseout="parent.tout(evt)" id="00079P0GCG01A" class="T1" x="-9.64462713745888" y="-29.0578528204933"></text>
<text onclick="parent.tclick(evt)" onmouseover="parent.tover(evt)" onmouseout="parent.tout(evt)" id="00079P0GPS01" class="T1" x="2.51142897352111" y="-12.6926192305982"></text>
<text onclick="parent.tclick(evt)" onmouseover="parent.tover(evt)" onmouseout="parent.tout(evt)" id="00079P0GPS02" class="T1" x="-21.679486379493" y="-14.3067220905796"></text>
<text onclick="parent.tclick(evt)" onmouseover="parent.tover(evt)" onmouseout="parent.tout(evt)" id="00079P0GCG07" class="T1" x="-11.4472703944775" y="-9.00985317025334"></text>
<text onclick="parent.tclick(evt)" onmouseover="parent.tover(evt)" onmouseout="parent.tout(evt)" id="00079P0GCG08" class="T1" x="-15.1322240974405" y="-9.14991113077849"></text>
<text onclick="parent.tclick(evt)" onmouseover="parent.tover(evt)" onmouseout="parent.tout(evt)" id="00079P0GCG09" class="T1" x="-19.4719169564778" y="-9.74275671038777"></text>
<text onclick="parent.tclick(evt)" onmouseover="parent.tover(evt)" onmouseout="parent.tout(evt)" id="00079P0GCG06" class="T1" x="-19.0651815724559" y="-12.7201030701399"></text>
<text onclick="parent.tclick(evt)" onmouseover="parent.tover(evt)" onmouseout="parent.tout(evt)" id="00079P0GCG05" class="T1" x="-14.7254887134768" y="-12.1272574905306"></text>
<text onclick="parent.tclick(evt)" onmouseover="parent.tover(evt)" onmouseout="parent.tout(evt)" id="00079P0GCG04" class="T1" x="-11.993514225469" y="-12.0669216504321"></text>
<text onclick="parent.tclick(evt)" onmouseover="parent.tover(evt)" onmouseout="parent.tout(evt)" id="00079P0GCG03" class="T1" x="-9.98714937549084" y="-11.7928320802748"></text>
<text onclick="parent.tclick(evt)" onmouseover="parent.tover(evt)" onmouseout="parent.tout(evt)" id="00079P0GBG11" class="T1" x="0.824547688534949" y="9.87496098969132"></text>
<text onclick="parent.tclick(evt)" onmouseover="parent.tover(evt)" onmouseout="parent.tout(evt)" id="00079P0GBG09" class="T1" x="4.09294219751609" y="14.5049553094432"></text>
<text onclick="parent.tclick(evt)" onmouseover="parent.tover(evt)" onmouseout="parent.tout(evt)" id="00079P0GBG10" class="T1" x="2.14832342555746" y="0.184979089535773"></text>
<text onclick="parent.tclick(evt)" onmouseover="parent.tover(evt)" onmouseout="parent.tout(evt)" id="00079P0GBG14" class="T1" x="-4.07626519649057" y="12.7985261194408"></text>
<text onclick="parent.tclick(evt)" onmouseover="parent.tover(evt)" onmouseout="parent.tout(evt)" id="00079P0GAG09" class="T1" x="18.9173631685553" y="6.02343168947846"></text>
<text onclick="parent.tclick(evt)" onmouseover="parent.tover(evt)" onmouseout="parent.tout(evt)" id="00079P0GBG04" class="T1" x="-0.425852497457527" y="-9.64456171076745"></text>
<text onclick="parent.tclick(evt)" onmouseover="parent.tover(evt)" onmouseout="parent.tout(evt)" id="00079P0GBG05" class="T1" x="1.80093590653269" y="-7.68951996043324"></text>
<text onclick="parent.tclick(evt)" onmouseover="parent.tover(evt)" onmouseout="parent.tout(evt)" id="00079P0GBG03" class="T1" x="6.079662658507" y="-8.27577705029398"></text>
<text onclick="parent.tclick(evt)" onmouseover="parent.tover(evt)" onmouseout="parent.tout(evt)" id="00079P0GBG06" class="T1" x="6.0481379845296" y="0.526006839238107"></text>
<text onclick="parent.tclick(evt)" onmouseover="parent.tover(evt)" onmouseout="parent.tout(evt)" id="00079P0GBG12" class="T1" x="-2.45668750547338" y="0.610580519773066"></text>
<text onclick="parent.tclick(evt)" onmouseover="parent.tover(evt)" onmouseout="parent.tout(evt)" id="00079P0GBG13" class="T1" x="-3.45220788847655" y="7.89789580926299"></text>
<text onclick="parent.tclick(evt)" onmouseover="parent.tover(evt)" onmouseout="parent.tout(evt)" id="00079P0GBG08" class="T1" x="4.70671138452599" y="10.344761329703"></text>
<text onclick="parent.tclick(evt)" onmouseover="parent.tover(evt)" onmouseout="parent.tout(evt)" id="00079P0GBG07" class="T1" x="5.28740373154869" y="6.09422902949154"></text>
<text onclick="parent.tclick(evt)" onmouseover="parent.tover(evt)" onmouseout="parent.tout(evt)" id="00079P0GAG11" class="T1" x="15.117509833537" y="0.518450799398124"></text>
<text onclick="parent.tclick(evt)" onmouseover="parent.tover(evt)" onmouseout="parent.tout(evt)" id="00079P0GAG14" class="T1" x="13.3273875225568" y="13.9548011999577"></text>
<text onclick="parent.tclick(evt)" onmouseover="parent.tover(evt)" onmouseout="parent.tout(evt)" id="00079P0GAG13" class="T1" x="13.7876678535249" y="10.2530357996002"></text>
<text onclick="parent.tclick(evt)" onmouseover="parent.tover(evt)" onmouseout="parent.tout(evt)" id="00079P0GAG12" class="T1" x="14.4563110475428" y="5.35849636979401"></text>
<text onclick="parent.tclick(evt)" onmouseover="parent.tover(evt)" onmouseout="parent.tout(evt)" id="00079P0GAG08" class="T1" x="22.0560177175212" y="16.3684581592679"></text>
<text onclick="parent.tclick(evt)" onmouseover="parent.tover(evt)" onmouseout="parent.tout(evt)" id="00079P0GAG07" class="T1" x="22.7246609115391" y="11.4739187192172"></text>
<text onclick="parent.tclick(evt)" onmouseover="parent.tover(evt)" onmouseout="parent.tout(evt)" id="00079P0GAG06" class="T1" x="23.3933041045093" y="6.57937928941101"></text>
<text onclick="parent.tclick(evt)" onmouseover="parent.tover(evt)" onmouseout="parent.tout(evt)" id="00079P0GAG05" class="T1" x="24.0545028905617" y="1.7393337097019"></text>
<text onclick="parent.tclick(evt)" onmouseover="parent.tover(evt)" onmouseout="parent.tout(evt)" id="00079P0GAG04" class="T1" x="16.6915988155524" y="-6.82608010061085"></text>
<text onclick="parent.tclick(evt)" onmouseover="parent.tover(evt)" onmouseout="parent.tout(evt)" id="00079P0GAG03" class="T1" x="22.5422577965073" y="-6.02682139072567"></text>
<text onclick="parent.tclick(evt)" onmouseover="parent.tover(evt)" onmouseout="parent.tout(evt)" id="00079P0GCG02" class="T1" x="-16.690451987437" y="-21.108369990252"></text>
<text onclick="parent.tclick(evt)" onmouseover="parent.tover(evt)" onmouseout="parent.tout(evt)" id="00079P0GBG02" class="T1" x="1.14390222751535" y="-18.6720182700083"></text>
<text onclick="parent.tclick(evt)" onmouseover="parent.tover(evt)" onmouseout="parent.tout(evt)" id="00079P0GBG01" class="T1" x="6.99456120852847" y="-17.8727595601231"></text>
<text onclick="parent.tclick(evt)" onmouseover="parent.tover(evt)" onmouseout="parent.tout(evt)" id="00079P0GAG01" class="T1" x="25.4051802825416" y="-19.6547280102968"></text>
</svg>
