<svg xmlns="http://www.w3.org/2000/svg" width="226" height="226" viewBox="0 0 226 226">
  <g id="support-center" transform="translate(-679 -488)">
    <path id="Subtraction_1" data-name="Subtraction 1" d="M113,226a113.836,113.836,0,0,1-22.774-2.3,112.382,112.382,0,0,1-40.406-17A113.33,113.33,0,0,1,8.88,156.984,112.434,112.434,0,0,1,2.3,135.773a114.1,114.1,0,0,1,0-45.547,112.38,112.38,0,0,1,17-40.406A113.329,113.329,0,0,1,69.015,8.88,112.431,112.431,0,0,1,90.227,2.3a114.1,114.1,0,0,1,45.547,0,112.381,112.381,0,0,1,40.406,17,113.329,113.329,0,0,1,40.94,49.716A112.43,112.43,0,0,1,223.7,90.226a114.1,114.1,0,0,1,0,45.547,112.383,112.383,0,0,1-17,40.406,113.329,113.329,0,0,1-49.716,40.941,112.431,112.431,0,0,1-21.211,6.584A113.832,113.832,0,0,1,113,226Zm0-198.108A85.108,85.108,0,1,0,198.108,113,85.2,85.2,0,0,0,113,27.892Z" transform="translate(679 488)"/>
    <g id="Group_15" data-name="Group 15">
      <circle id="Ellipse_16" data-name="Ellipse 16" cx="14.5" cy="14.5" r="14.5" transform="translate(778 530)"/>
      <g id="Group_12" data-name="Group 12" transform="translate(777.032 564.38)">
        <path id="Union_1" data-name="Union 1" d="M-2895.032-497.381v-76h.008c.247-8.329,6.641-15,14.492-15s14.246,6.672,14.492,15h.008v76a14.756,14.756,0,0,1-14.5,15A14.756,14.756,0,0,1-2895.032-497.381Z" transform="translate(2896 592)"/>
      </g>
    </g>
  </g>
</svg>
