<svg xmlns="http://www.w3.org/2000/svg" width="45" height="45.001" viewBox="0 0 45 45.001">
  <path id="tactile--icon" d="M-2025,45h-45V0h45V45Zm-12.171-17.616a5.373,5.373,0,0,0-5.445,5.285,5.373,5.373,0,0,0,5.445,5.285,5.373,5.373,0,0,0,5.445-5.285A5.372,5.372,0,0,0-2037.171,27.385Zm-20.5,0a5.372,5.372,0,0,0-5.445,5.285,5.373,5.373,0,0,0,5.445,5.285,5.373,5.373,0,0,0,5.445-5.285A5.373,5.373,0,0,0-2057.669,27.385Zm20.5-20.178a5.373,5.373,0,0,0-5.445,5.285,5.373,5.373,0,0,0,5.445,5.285,5.373,5.373,0,0,0,5.445-5.285A5.372,5.372,0,0,0-2037.171,7.207Zm-20.5,0a5.372,5.372,0,0,0-5.445,5.285,5.373,5.373,0,0,0,5.445,5.285,5.373,5.373,0,0,0,5.445-5.285A5.373,5.373,0,0,0-2057.669,7.207Z" transform="translate(2070)" fill="#ffb000"/>
</svg>
