<svg id="toilet" xmlns="http://www.w3.org/2000/svg" width="246.243" height="281.001" viewBox="0 0 246.243 281.001">
  <path id="Path_1" data-name="Path 1" d="M135.527,50a25.061,25.061,0,1,0-27.5-24.952,26.017,26.017,0,0,0,3.131,12.133l8.926,125.6,91.927.025,37.7,88.344,49.5-19.414-7.666-18.253-27.7,10-36.482-84.224-85.472.574-1.173-15.906,61.875.025V100.417l-64.236-.025Z" transform="translate(-52.98)" fill-rule="evenodd"/>
  <path id="Path_2" data-name="Path 2" d="M175,331.169c-15.515,30.671-47.99,50.877-82.629,50.877A92.551,92.551,0,0,1,0,289.674c0-35.722,21.65-68.918,53.956-83.634l2.091,27.282A67.073,67.073,0,0,0,92.168,356.87c33.766,0,62.559-25.913,66.486-59.156Z" transform="translate(0 -101.045)" fill-rule="evenodd"/>
</svg>
