<svg xmlns="http://www.w3.org/2000/svg" width="281" height="281.001" viewBox="0 0 281 281.001">
  <path id="tactile" d="M-1789,281h-281V0h281V281Zm-76-110c-18.748,0-34,14.8-34,33s15.252,33,34,33,34-14.8,34-33S-1846.253,171-1865,171Zm-128,0c-18.747,0-34,14.8-34,33s15.252,33,34,33,34-14.8,34-33S-1974.253,171-1993,171Zm128-126c-18.748,0-34,14.8-34,33s15.252,33,34,33,34-14.8,34-33S-1846.253,45-1865,45Zm-128,0c-18.747,0-34,14.8-34,33s15.252,33,34,33,34-14.8,34-33S-1974.253,45-1993,45Z" transform="translate(2070 0)"/>
</svg>
