<svg xmlns="http://www.w3.org/2000/svg" width="281" height="260.401" viewBox="0 0 281 260.401">
  <g id="toilet" transform="translate(0 -18.766)">
    <g id="Group_70" data-name="Group 70" transform="translate(0 68.459)">
      <g id="Group_69" data-name="Group 69">
        <path id="Path_9537" data-name="Path 9537" d="M80.483,109.31H24.855A24.526,24.526,0,0,0,.382,133.66L0,209.635a10.342,10.342,0,0,0,10.289,10.394h.054a10.342,10.342,0,0,0,10.34-10.289l.382-75.975v-.026a2.051,2.051,0,0,1,4.1.024l0,173.845a12.41,12.41,0,0,0,24.82,0V208.416H55.35v99.192a12.41,12.41,0,1,0,24.819,0c0-164.041-.22-70.231-.225-173.694a2.167,2.167,0,0,1,4.328-.171h0l-.07,75.933a10.342,10.342,0,0,0,10.332,10.351h.01A10.342,10.342,0,0,0,104.884,209.7l.07-75.975c0-.021,0-.041,0-.063A24.526,24.526,0,0,0,80.483,109.31Z" transform="translate(0 -109.31)"/>
      </g>
    </g>
    <g id="Group_72" data-name="Group 72" transform="translate(31.239 18.766)">
      <g id="Group_71" data-name="Group 71" transform="translate(0 0)">
        <circle id="Ellipse_59" data-name="Ellipse 59" cx="21.43" cy="21.43" r="21.43"/>
      </g>
    </g>
    <g id="Group_74" data-name="Group 74" transform="translate(152.699 69.05)">
      <g id="Group_73" data-name="Group 73">
        <path id="Path_9538" data-name="Path 9538" d="M405.947,194.062c-.19-.541-19-54.179-21.954-62.789-4.763-13.86-12.749-20.887-23.736-20.887H324.5c-10.988,0-18.974,7.028-23.736,20.887-2.959,8.61-21.764,62.249-21.954,62.789a10.266,10.266,0,0,0,19.376,6.794c.607-1.731,11.921-33.167,18.233-51.254-.661,5.4,1.243-5.806-14.674,76.372a5.714,5.714,0,0,0,5.6,6.794h7.833v74.464a12.319,12.319,0,0,0,24.638,0V232.766h5.319v74.465a12.319,12.319,0,1,0,24.638,0V232.766H377.6a5.707,5.707,0,0,0,5.6-6.794C367.431,144.543,369.169,154,368.631,149.6c6.363,18.227,17.344,49.55,17.942,51.254a10.265,10.265,0,1,0,19.374-6.793Z" transform="translate(-278.227 -110.386)"/>
      </g>
    </g>
    <g id="Group_76" data-name="Group 76" transform="translate(195.666 19.717)">
      <g id="Group_75" data-name="Group 75" transform="translate(0 0)">
        <circle id="Ellipse_60" data-name="Ellipse 60" cx="21.276" cy="21.276" r="21.276"/>
      </g>
    </g>
    <g id="Group_78" data-name="Group 78" transform="translate(123.668 32.574)">
      <g id="Group_77" data-name="Group 77">
        <path id="Path_9539" data-name="Path 9539" d="M233.251,43.925a7.92,7.92,0,0,0-7.92,7.92V268.786a7.92,7.92,0,0,0,15.839,0V51.845A7.92,7.92,0,0,0,233.251,43.925Z" transform="translate(-225.331 -43.925)"/>
      </g>
    </g>
  </g>
</svg>
