<svg xmlns="http://www.w3.org/2000/svg" width="281" height="281.001" viewBox="0 0 281 281.001">
  <g id="unlisted" transform="translate(-2056 -77)">
    <path id="building--1" d="M-1716,202h-177V-79h177V202Zm-89.419-90.082A16.011,16.011,0,0,0-1816.441,116a12.871,12.871,0,0,0-4.563,9.91,12.667,12.667,0,0,0,4.61,10.336A16.661,16.661,0,0,0-1805.626,140a17.111,17.111,0,0,0,10.924-3.711c3.092-2.454,4.66-5.945,4.66-10.378A13.012,13.012,0,0,0-1794.5,116,15.656,15.656,0,0,0-1805.42,111.919Zm2.295-102.745c5.467,0,9.789,1.718,13.213,5.252a17.48,17.48,0,0,1,5.015,12.733,15.451,15.451,0,0,1-1.6,7.016,28.2,28.2,0,0,1-4.21,6.238c-1.794,2.007-4.688,4.966-8.6,8.794-4.571,4.485-8.286,8.442-11.04,11.764a42.014,42.014,0,0,0-6.815,11.932,45.738,45.738,0,0,0-2.578,16.078c0,5.24,1.307,9.3,3.884,12.059a12.462,12.462,0,0,0,9.454,4.135c7.115,0,11.581-4.32,12.913-12.494.745-3.669,1.217-5.86,1.53-7.1a21.8,21.8,0,0,1,1.326-3.731,21.813,21.813,0,0,1,2.619-4.116,67.215,67.215,0,0,1,4.964-5.556c7.648-7.648,13.057-13.2,16.076-16.512a50.447,50.447,0,0,0,8.033-12.1,38.123,38.123,0,0,0,3.447-16.609,43.126,43.126,0,0,0-5.984-22.131l.014-.007a42.532,42.532,0,0,0-16.826-16A51.683,51.683,0,0,0-1803.128-17c-10.029,0-18.945,2.346-26.5,6.973A48.29,48.29,0,0,0-1847,7.645a43.508,43.508,0,0,0-6,21.3,15.541,15.541,0,0,0,4.118,10.382,13.012,13.012,0,0,0,10.156,4.757c6.794,0,11.441-4.456,13.812-13.243,2.146-7.247,4.8-12.787,7.872-16.466C-1814.157,10.924-1809.475,9.174-1803.125,9.174Z" transform="translate(3949 156)"/>
    <path id="building--2" d="M0,0,84,53V212H0Z" transform="translate(2253 146)"/>
  </g>
</svg>
